<?xml version="1.0" encoding="UTF-8"?>
<svg xmlns="http://www.w3.org/2000/svg" xmlns:xlink="http://www.w3.org/1999/xlink" width="300px" height="200px" viewBox="0 0 300 200" version="1.1">
<g id="surface1">
<path style=" stroke:none;fill-rule:nonzero;fill:rgb(96.862745%,47.45098%,20.784314%);fill-opacity:1;" d="M 294.835938 31.976562 C 292.484375 31.667969 290.136719 32.515625 289.238281 33.996094 L 265.84375 72.652344 L 245.535156 58.207031 C 244.320312 57.339844 242.503906 56.972656 240.769531 57.238281 C 239.039062 57.503906 237.648438 58.363281 237.125 59.496094 L 208.792969 120.546875 L 197.398438 111.09375 C 196.5 110.347656 195.160156 109.894531 193.726562 109.851562 C 192.289062 109.808594 190.898438 110.183594 189.902344 110.875 L 175.285156 121.039062 L 153.015625 69.4375 C 152.417969 68.046875 150.53125 67.070312 148.359375 67.03125 C 146.207031 66.996094 144.222656 67.894531 143.507812 69.261719 L 118.375 117.308594 L 103.609375 110.542969 C 102.484375 110.023438 101.089844 109.839844 99.75 110.027344 C 98.410156 110.214844 97.246094 110.761719 96.53125 111.539062 L 72.726562 137.316406 L 37.695312 132.257812 C 35.144531 131.886719 32.597656 132.890625 31.855469 134.5625 L 6.199219 192.210938 C 5.75 193.21875 6.039062 194.304688 6.984375 195.148438 C 7.925781 195.988281 9.410156 196.484375 10.984375 196.484375 L 292.5625 196.484375 C 295.308594 196.484375 297.539062 195.007812 297.554688 193.175781 L 298.859375 35.261719 C 298.875 33.664062 297.183594 32.285156 294.835938 31.976562 Z M 294.835938 31.976562 "/>
<path style=" stroke:none;fill-rule:nonzero;fill:rgb(85.098039%,31.764706%,5.098039%);fill-opacity:1;" d="M 294.835938 31.976562 C 292.484375 31.667969 290.136719 32.515625 289.238281 33.996094 L 274.589844 58.199219 L 273.230469 196.484375 L 292.5625 196.484375 C 295.308594 196.484375 297.539062 195.007812 297.554688 193.175781 L 298.863281 35.261719 C 298.875 33.664062 297.183594 32.285156 294.835938 31.976562 Z M 294.835938 31.976562 "/>
<path style=" stroke:none;fill-rule:nonzero;fill:rgb(91.372549%,19.607843%,20%);fill-opacity:1;" d="M 299.878906 6.898438 C 299.863281 5.078125 297.652344 3.605469 294.921875 3.59375 L 276.210938 3.515625 C 276.203125 3.515625 276.191406 3.515625 276.179688 3.515625 C 273.4375 3.515625 271.207031 4.992188 271.1875 6.820312 C 271.171875 8.660156 273.390625 10.160156 276.148438 10.171875 L 282.832031 10.199219 L 254.808594 40.285156 L 235.277344 28.757812 C 234.019531 28.015625 232.285156 27.742188 230.667969 28.035156 C 229.046875 28.328125 227.753906 29.140625 227.226562 30.207031 L 203.160156 78.777344 L 199.519531 75.117188 C 198.652344 74.246094 197.222656 73.695312 195.660156 73.632812 C 194.089844 73.566406 192.574219 74 191.558594 74.796875 L 183.84375 80.832031 L 151.46875 20.367188 C 150.773438 19.066406 148.945312 18.1875 146.871094 18.160156 C 144.789062 18.132812 142.914062 18.957031 142.140625 20.238281 L 103.5625 83.902344 L 91.09375 79.746094 C 88.738281 78.960938 85.875 79.53125 84.546875 81.046875 L 59.675781 109.496094 L 23.171875 105.183594 C 20.640625 104.886719 18.191406 105.910156 17.496094 107.558594 L 0.1875 148.484375 C -0.558594 150.253906 0.984375 152.089844 3.640625 152.589844 C 4.09375 152.675781 4.546875 152.714844 4.996094 152.714844 C 7.175781 152.714844 9.179688 151.757812 9.796875 150.289062 L 25.878906 112.261719 L 61.367188 116.453125 C 63.425781 116.695312 65.496094 116.058594 66.550781 114.851562 L 90.816406 87.09375 L 103.933594 91.46875 C 105.179688 91.882812 106.628906 91.929688 107.933594 91.601562 C 109.234375 91.273438 110.273438 90.597656 110.796875 89.738281 L 146.480469 30.847656 L 177.347656 88.488281 C 177.945312 89.609375 179.394531 90.429688 181.148438 90.644531 C 182.898438 90.859375 184.691406 90.433594 185.847656 89.527344 L 194.863281 82.476562 L 200.519531 88.160156 C 201.574219 89.222656 203.445312 89.789062 205.339844 89.621094 C 207.234375 89.453125 208.820312 88.578125 209.417969 87.367188 L 234.332031 37.085938 L 252.621094 47.882812 C 253.722656 48.53125 255.199219 48.824219 256.65625 48.683594 C 258.109375 48.539062 259.398438 47.976562 260.171875 47.144531 L 289.976562 15.148438 L 290.015625 19.414062 C 290.035156 21.242188 292.265625 22.71875 295.007812 22.71875 C 295.019531 22.71875 295.03125 22.71875 295.039062 22.71875 C 297.796875 22.707031 300.019531 21.210938 300 19.371094 Z M 299.878906 6.898438 "/>
</g>
</svg>
