<?xml version="1.0" encoding="UTF-8"?>
<svg xmlns="http://www.w3.org/2000/svg" xmlns:xlink="http://www.w3.org/1999/xlink" width="500px" height="500px" viewBox="0 0 500 500" version="1.1">
<g id="surface1">
<path style=" stroke:none;fill-rule:evenodd;fill:rgb(21.176471%,43.529412%,61.960784%);fill-opacity:1;" d="M 2.8125 375.796875 L 14.363281 375.796875 C 15.917969 375.796875 17.175781 378.328125 17.175781 381.449219 L 17.175781 467.46875 C 17.175781 470.59375 15.917969 473.125 14.363281 473.125 L 2.8125 473.125 C 1.257812 473.125 0 470.59375 0 467.46875 L 0 381.449219 C 0 378.328125 1.257812 375.796875 2.8125 375.796875 Z M 2.8125 375.796875 "/>
<path style=" stroke:none;fill-rule:evenodd;fill:rgb(21.176471%,43.529412%,61.960784%);fill-opacity:1;" d="M 29.515625 262.753906 L 38.558594 262.753906 C 40.804688 262.753906 42.625 266.414062 42.625 270.925781 L 42.625 375.800781 C 42.625 380.316406 40.804688 383.976562 38.558594 383.976562 L 29.515625 383.976562 C 27.269531 383.976562 25.449219 380.316406 25.449219 375.800781 L 25.449219 270.925781 C 25.449219 266.414062 27.269531 262.753906 29.515625 262.753906 Z M 29.515625 262.753906 "/>
<path style=" stroke:none;fill-rule:evenodd;fill:rgb(21.176471%,43.529412%,61.960784%);fill-opacity:1;" d="M 28.261719 397.816406 L 39.8125 397.816406 C 41.367188 397.816406 42.625 400.347656 42.625 403.46875 L 42.625 494.542969 C 42.625 497.667969 41.367188 500.199219 39.8125 500.199219 L 28.261719 500.199219 C 26.710938 500.199219 25.449219 497.667969 25.449219 494.542969 L 25.449219 403.46875 C 25.449219 400.347656 26.710938 397.816406 28.261719 397.816406 Z M 28.261719 397.816406 "/>
<path style=" stroke:none;fill-rule:evenodd;fill:rgb(21.176471%,43.529412%,61.960784%);fill-opacity:1;" d="M 53.710938 148.644531 L 65.261719 148.644531 C 66.816406 148.644531 68.074219 151.171875 68.074219 154.296875 L 68.074219 324.847656 C 68.074219 327.96875 66.816406 330.5 65.261719 330.5 L 53.710938 330.5 C 52.160156 330.5 50.898438 327.96875 50.898438 324.847656 L 50.898438 154.296875 C 50.898438 151.171875 52.160156 148.644531 53.710938 148.644531 Z M 53.710938 148.644531 "/>
<path style=" stroke:none;fill-rule:evenodd;fill:rgb(21.176471%,43.529412%,61.960784%);fill-opacity:1;" d="M 53.710938 346.523438 L 65.261719 346.523438 C 66.816406 346.523438 68.074219 349.054688 68.074219 352.179688 L 68.074219 405.070312 C 68.074219 408.195312 66.816406 410.726562 65.261719 410.726562 L 53.710938 410.726562 C 52.160156 410.726562 50.898438 408.195312 50.898438 405.070312 L 50.898438 352.179688 C 50.898438 349.054688 52.160156 346.523438 53.710938 346.523438 Z M 53.710938 346.523438 "/>
<path style=" stroke:none;fill-rule:evenodd;fill:rgb(21.176471%,43.529412%,61.960784%);fill-opacity:1;" d="M 54.964844 453.835938 L 64.007812 453.835938 C 66.253906 453.835938 68.074219 457.496094 68.074219 462.011719 L 68.074219 492.023438 C 68.074219 496.539062 66.253906 500.199219 64.007812 500.199219 L 54.964844 500.199219 C 52.71875 500.199219 50.898438 496.539062 50.898438 492.023438 L 50.898438 462.011719 C 50.898438 457.496094 52.71875 453.835938 54.964844 453.835938 Z M 54.964844 453.835938 "/>
<path style=" stroke:none;fill-rule:evenodd;fill:rgb(21.176471%,43.529412%,61.960784%);fill-opacity:1;" d="M 79.160156 67.753906 L 90.710938 67.753906 C 92.265625 67.753906 93.523438 70.285156 93.523438 73.410156 L 93.523438 194.035156 C 93.523438 197.15625 92.265625 199.6875 90.710938 199.6875 L 79.160156 199.6875 C 77.609375 199.6875 76.347656 197.15625 76.347656 194.035156 L 76.347656 73.410156 C 76.347656 70.285156 77.609375 67.753906 79.160156 67.753906 Z M 79.160156 67.753906 "/>
<path style=" stroke:none;fill-rule:evenodd;fill:rgb(21.176471%,43.529412%,61.960784%);fill-opacity:1;" d="M 79.15625 214.386719 L 90.71875 214.386719 C 92.269531 214.386719 93.523438 216.914062 93.523438 220.027344 L 93.523438 383.53125 C 93.523438 386.648438 92.269531 389.171875 90.71875 389.171875 L 79.15625 389.171875 C 77.605469 389.171875 76.347656 386.648438 76.347656 383.53125 L 76.347656 220.027344 C 76.347656 216.914062 77.605469 214.386719 79.15625 214.386719 Z M 79.15625 214.386719 "/>
<path style=" stroke:none;fill-rule:evenodd;fill:rgb(21.176471%,43.529412%,61.960784%);fill-opacity:1;" d="M 104.609375 42.863281 L 116.160156 42.863281 C 117.710938 42.863281 118.972656 45.394531 118.972656 48.515625 L 118.972656 128.953125 C 118.972656 132.078125 117.710938 134.609375 116.160156 134.609375 L 104.609375 134.609375 C 103.054688 134.609375 101.796875 132.078125 101.796875 128.953125 L 101.796875 48.515625 C 101.796875 45.394531 103.054688 42.863281 104.609375 42.863281 Z M 104.609375 42.863281 "/>
<path style=" stroke:none;fill-rule:evenodd;fill:rgb(21.176471%,43.529412%,61.960784%);fill-opacity:1;" d="M 104.613281 148.757812 L 116.164062 148.757812 C 117.71875 148.757812 118.976562 151.289062 118.976562 154.410156 L 118.976562 270.152344 C 118.976562 273.273438 117.71875 275.804688 116.164062 275.804688 L 104.613281 275.804688 C 103.058594 275.804688 101.800781 273.273438 101.800781 270.152344 L 101.800781 154.410156 C 101.800781 151.289062 103.058594 148.757812 104.613281 148.757812 Z M 104.613281 148.757812 "/>
<path style=" stroke:none;fill-rule:evenodd;fill:rgb(21.176471%,43.529412%,61.960784%);fill-opacity:1;" d="M 104.613281 292.46875 L 116.164062 292.46875 C 117.71875 292.46875 118.976562 295 118.976562 298.121094 L 118.976562 402.105469 C 118.976562 405.226562 117.71875 407.757812 116.164062 407.757812 L 104.613281 407.757812 C 103.058594 407.757812 101.800781 405.226562 101.800781 402.105469 L 101.800781 298.121094 C 101.800781 295 103.058594 292.46875 104.613281 292.46875 Z M 104.613281 292.46875 "/>
<path style=" stroke:none;fill-rule:evenodd;fill:rgb(21.176471%,43.529412%,61.960784%);fill-opacity:1;" d="M 131.316406 22.691406 L 140.359375 22.691406 C 142.605469 22.691406 144.425781 26.351562 144.425781 30.863281 L 144.425781 181.894531 C 144.425781 186.410156 142.605469 190.070312 140.359375 190.070312 L 131.316406 190.070312 C 129.070312 190.070312 127.25 186.410156 127.25 181.894531 L 127.25 30.863281 C 127.25 26.351562 129.070312 22.691406 131.316406 22.691406 Z M 131.316406 22.691406 "/>
<path style=" stroke:none;fill-rule:evenodd;fill:rgb(21.176471%,43.529412%,61.960784%);fill-opacity:1;" d="M 131.316406 206.738281 L 140.359375 206.738281 C 142.605469 206.738281 144.425781 210.398438 144.425781 214.914062 L 144.425781 249.964844 C 144.425781 254.480469 142.605469 258.140625 140.359375 258.140625 L 131.316406 258.140625 C 129.070312 258.140625 127.25 254.480469 127.25 249.964844 L 127.25 214.914062 C 127.25 210.398438 129.070312 206.738281 131.316406 206.738281 Z M 131.316406 206.738281 "/>
<path style=" stroke:none;fill-rule:evenodd;fill:rgb(100%,79.607843%,23.137255%);fill-opacity:1;" d="M 131.316406 269.785156 L 140.347656 269.785156 C 142.59375 269.785156 144.414062 273.445312 144.414062 277.960938 L 144.414062 434.03125 C 144.414062 438.546875 142.59375 442.207031 140.347656 442.207031 L 131.316406 442.207031 C 129.070312 442.207031 127.25 438.546875 127.25 434.03125 L 127.25 277.960938 C 127.25 273.445312 129.070312 269.785156 131.316406 269.785156 Z M 131.316406 269.785156 "/>
<path style=" stroke:none;fill-rule:evenodd;fill:rgb(21.176471%,43.529412%,61.960784%);fill-opacity:1;" d="M 156.765625 2.527344 L 165.808594 2.527344 C 168.054688 2.527344 169.875 6.1875 169.875 10.699219 L 169.875 40.714844 C 169.875 45.226562 168.054688 48.886719 165.808594 48.886719 L 156.765625 48.886719 C 154.519531 48.886719 152.699219 45.226562 152.699219 40.714844 L 152.699219 10.699219 C 152.699219 6.1875 154.519531 2.527344 156.765625 2.527344 Z M 156.765625 2.527344 "/>
<path style=" stroke:none;fill-rule:evenodd;fill:rgb(21.176471%,43.529412%,61.960784%);fill-opacity:1;" d="M 156.765625 63.027344 L 165.808594 63.027344 C 168.054688 63.027344 169.875 66.6875 169.875 71.203125 L 169.875 302.917969 C 169.875 307.433594 168.054688 311.09375 165.808594 311.09375 L 156.765625 311.09375 C 154.519531 311.09375 152.699219 307.433594 152.699219 302.917969 L 152.699219 71.203125 C 152.699219 66.6875 154.519531 63.027344 156.765625 63.027344 Z M 156.765625 63.027344 "/>
<path style=" stroke:none;fill-rule:evenodd;fill:rgb(100%,79.607843%,23.137255%);fill-opacity:1;" d="M 156.765625 327.769531 L 165.808594 327.769531 C 168.054688 327.769531 169.875 331.425781 169.875 335.941406 L 169.875 398.722656 C 169.875 403.238281 168.054688 406.898438 165.808594 406.898438 L 156.765625 406.898438 C 154.519531 406.898438 152.699219 403.238281 152.699219 398.722656 L 152.699219 335.941406 C 152.699219 331.425781 154.519531 327.769531 156.765625 327.769531 Z M 156.765625 327.769531 "/>
<path style=" stroke:none;fill-rule:evenodd;fill:rgb(100%,79.607843%,23.137255%);fill-opacity:1;" d="M 156.765625 423.585938 L 165.808594 423.585938 C 168.054688 423.585938 169.875 427.246094 169.875 431.757812 L 169.875 471.855469 C 169.875 476.367188 168.054688 480.027344 165.808594 480.027344 L 156.765625 480.027344 C 154.519531 480.027344 152.699219 476.367188 152.699219 471.855469 L 152.699219 431.757812 C 152.699219 427.246094 154.519531 423.585938 156.765625 423.585938 Z M 156.765625 423.585938 "/>
<path style=" stroke:none;fill-rule:evenodd;fill:rgb(100%,79.607843%,23.137255%);fill-opacity:1;" d="M 182.214844 410.960938 L 191.257812 410.960938 C 193.503906 410.960938 195.324219 414.621094 195.324219 419.132812 L 195.324219 492.023438 C 195.324219 496.539062 193.503906 500.199219 191.257812 500.199219 L 182.214844 500.199219 C 179.96875 500.199219 178.148438 496.539062 178.148438 492.023438 L 178.148438 419.132812 C 178.148438 414.621094 179.96875 410.960938 182.214844 410.960938 Z M 182.214844 410.960938 "/>
<path style=" stroke:none;fill-rule:evenodd;fill:rgb(100%,79.607843%,23.137255%);fill-opacity:1;" d="M 182.214844 158.851562 L 191.257812 158.851562 C 193.503906 158.851562 195.324219 162.511719 195.324219 167.023438 L 195.324219 345.78125 C 195.324219 350.296875 193.503906 353.957031 191.257812 353.957031 L 182.214844 353.957031 C 179.96875 353.957031 178.148438 350.296875 178.148438 345.78125 L 178.148438 167.023438 C 178.148438 162.511719 179.96875 158.851562 182.214844 158.851562 Z M 182.214844 158.851562 "/>
<path style=" stroke:none;fill-rule:evenodd;fill:rgb(21.176471%,43.529412%,61.960784%);fill-opacity:1;" d="M 182.214844 0 L 191.257812 0 C 193.503906 0 195.324219 3.660156 195.324219 8.175781 L 195.324219 133.988281 C 195.324219 138.5 193.503906 142.160156 191.257812 142.160156 L 182.214844 142.160156 C 179.96875 142.160156 178.148438 138.5 178.148438 133.988281 L 178.148438 8.175781 C 178.148438 3.660156 179.96875 0 182.214844 0 Z M 182.214844 0 "/>
<path style=" stroke:none;fill-rule:evenodd;fill:rgb(100%,79.607843%,23.137255%);fill-opacity:1;" d="M 207.664062 448.796875 L 216.707031 448.796875 C 218.953125 448.796875 220.773438 452.457031 220.773438 456.96875 L 220.773438 492.023438 C 220.773438 496.539062 218.953125 500.199219 216.707031 500.199219 L 207.664062 500.199219 C 205.417969 500.199219 203.597656 496.539062 203.597656 492.023438 L 203.597656 456.96875 C 203.597656 452.457031 205.417969 448.796875 207.664062 448.796875 Z M 207.664062 448.796875 "/>
<path style=" stroke:none;fill-rule:evenodd;fill:rgb(21.176471%,43.529412%,61.960784%);fill-opacity:1;" d="M 207.664062 2.523438 L 216.707031 2.523438 C 218.953125 2.523438 220.773438 6.183594 220.773438 10.695312 L 220.773438 224.757812 C 220.773438 229.273438 218.953125 232.929688 216.707031 232.929688 L 207.664062 232.929688 C 205.417969 232.929688 203.597656 229.273438 203.597656 224.757812 L 203.597656 10.695312 C 203.597656 6.183594 205.417969 2.523438 207.664062 2.523438 Z M 207.664062 2.523438 "/>
<path style=" stroke:none;fill-rule:evenodd;fill:rgb(100%,79.607843%,23.137255%);fill-opacity:1;" d="M 207.664062 249.613281 L 216.707031 249.613281 C 218.953125 249.613281 220.773438 253.273438 220.773438 257.785156 L 220.773438 345.789062 C 220.773438 350.300781 218.953125 353.960938 216.707031 353.960938 L 207.664062 353.960938 C 205.417969 353.960938 203.597656 350.300781 203.597656 345.789062 L 203.597656 257.785156 C 203.597656 253.273438 205.417969 249.613281 207.664062 249.613281 Z M 207.664062 249.613281 "/>
<path style=" stroke:none;fill-rule:evenodd;fill:rgb(21.176471%,43.529412%,61.960784%);fill-opacity:1;" d="M 233.113281 12.609375 L 242.15625 12.609375 C 244.402344 12.609375 246.222656 16.265625 246.222656 20.78125 L 246.222656 81.042969 C 246.222656 85.558594 244.402344 89.214844 242.15625 89.214844 L 233.113281 89.214844 C 230.867188 89.214844 229.046875 85.558594 229.046875 81.042969 L 229.046875 20.78125 C 229.046875 16.265625 230.867188 12.609375 233.113281 12.609375 Z M 233.113281 12.609375 "/>
<path style=" stroke:none;fill-rule:evenodd;fill:rgb(100%,79.607843%,23.137255%);fill-opacity:1;" d="M 233.113281 105.886719 L 242.15625 105.886719 C 244.402344 105.886719 246.222656 109.546875 246.222656 114.058594 L 246.222656 345.765625 C 246.222656 350.28125 244.402344 353.941406 242.15625 353.941406 L 233.113281 353.941406 C 230.867188 353.941406 229.046875 350.28125 229.046875 345.765625 L 229.046875 114.058594 C 229.046875 109.546875 230.867188 105.886719 233.113281 105.886719 Z M 233.113281 105.886719 "/>
<path style=" stroke:none;fill-rule:evenodd;fill:rgb(21.176471%,43.529412%,61.960784%);fill-opacity:1;" d="M 258.558594 17.652344 L 267.601562 17.652344 C 269.847656 17.652344 271.667969 21.3125 271.667969 25.824219 L 271.667969 159.210938 C 271.667969 163.726562 269.847656 167.386719 267.601562 167.386719 L 258.558594 167.386719 C 256.3125 167.386719 254.492188 163.726562 254.492188 159.210938 L 254.492188 25.824219 C 254.492188 21.3125 256.3125 17.652344 258.558594 17.652344 Z M 258.558594 17.652344 "/>
<path style=" stroke:none;fill-rule:evenodd;fill:rgb(100%,79.607843%,23.137255%);fill-opacity:1;" d="M 258.558594 184.0625 L 267.601562 184.0625 C 269.847656 184.0625 271.667969 187.722656 271.667969 192.238281 L 271.667969 302.9375 C 271.667969 307.449219 269.847656 311.109375 267.601562 311.109375 L 258.558594 311.109375 C 256.3125 311.109375 254.492188 307.449219 254.492188 302.9375 L 254.492188 192.238281 C 254.492188 187.722656 256.3125 184.0625 258.558594 184.0625 Z M 258.558594 184.0625 "/>
<path style=" stroke:none;fill-rule:evenodd;fill:rgb(100%,79.607843%,23.137255%);fill-opacity:1;" d="M 258.558594 327.761719 L 267.601562 327.761719 C 269.847656 327.761719 271.667969 331.417969 271.667969 335.933594 L 271.667969 386.113281 C 271.667969 390.625 269.847656 394.285156 267.601562 394.285156 L 258.558594 394.285156 C 256.3125 394.285156 254.492188 390.625 254.492188 386.113281 L 254.492188 335.933594 C 254.492188 331.417969 256.3125 327.761719 258.558594 327.761719 Z M 258.558594 327.761719 "/>
<path style=" stroke:none;fill-rule:evenodd;fill:rgb(21.176471%,43.529412%,61.960784%);fill-opacity:1;" d="M 283.851562 25.222656 L 292.894531 25.222656 C 295.140625 25.222656 296.960938 28.882812 296.960938 33.398438 L 296.960938 239.894531 C 296.960938 244.410156 295.140625 248.070312 292.894531 248.070312 L 283.851562 248.070312 C 281.605469 248.070312 279.785156 244.410156 279.785156 239.894531 L 279.785156 33.398438 C 279.785156 28.882812 281.605469 25.222656 283.851562 25.222656 Z M 283.851562 25.222656 "/>
<path style=" stroke:none;fill-rule:evenodd;fill:rgb(100%,79.607843%,23.137255%);fill-opacity:1;" d="M 283.851562 264.746094 L 292.894531 264.746094 C 295.140625 264.746094 296.960938 268.402344 296.960938 272.917969 L 296.960938 436.550781 C 296.960938 441.066406 295.140625 444.726562 292.894531 444.726562 L 283.851562 444.726562 C 281.605469 444.726562 279.785156 441.066406 279.785156 436.550781 L 279.785156 272.917969 C 279.785156 268.402344 281.605469 264.746094 283.851562 264.746094 Z M 283.851562 264.746094 "/>
<path style=" stroke:none;fill-rule:evenodd;fill:rgb(21.176471%,43.529412%,61.960784%);fill-opacity:1;" d="M 309.128906 17.65625 L 318.171875 17.65625 C 320.417969 17.65625 322.238281 21.3125 322.238281 25.828125 L 322.238281 113.828125 C 322.238281 118.34375 320.417969 122.003906 318.171875 122.003906 L 309.128906 122.003906 C 306.882812 122.003906 305.0625 118.34375 305.0625 113.828125 L 305.0625 25.828125 C 305.0625 21.3125 306.882812 17.65625 309.128906 17.65625 Z M 309.128906 17.65625 "/>
<path style=" stroke:none;fill-rule:evenodd;fill:rgb(100%,79.607843%,23.137255%);fill-opacity:1;" d="M 309.128906 138.675781 L 318.171875 138.675781 C 320.417969 138.675781 322.238281 142.335938 322.238281 146.847656 L 322.238281 403.785156 C 322.238281 408.300781 320.417969 411.960938 318.171875 411.960938 L 309.128906 411.960938 C 306.882812 411.960938 305.0625 408.300781 305.0625 403.785156 L 305.0625 146.847656 C 305.0625 142.335938 306.882812 138.675781 309.128906 138.675781 Z M 309.128906 138.675781 "/>
<path style=" stroke:none;fill-rule:evenodd;fill:rgb(100%,83.529412%,30.980392%);fill-opacity:1;" d="M 309.128906 428.625 L 318.171875 428.625 C 320.417969 428.625 322.238281 432.28125 322.238281 436.796875 L 322.238281 484.453125 C 322.238281 488.96875 320.417969 492.628906 318.171875 492.628906 L 309.128906 492.628906 C 306.882812 492.628906 305.0625 488.96875 305.0625 484.453125 L 305.0625 436.796875 C 305.0625 432.28125 306.882812 428.625 309.128906 428.625 Z M 309.128906 428.625 "/>
<path style=" stroke:none;fill-rule:evenodd;fill:rgb(100%,83.529412%,30.980392%);fill-opacity:1;" d="M 334.574219 413.492188 L 343.617188 413.492188 C 345.863281 413.492188 347.683594 417.152344 347.683594 421.667969 L 347.683594 492.023438 C 347.683594 496.539062 345.863281 500.199219 343.617188 500.199219 L 334.574219 500.199219 C 332.328125 500.199219 330.507812 496.539062 330.507812 492.023438 L 330.507812 421.667969 C 330.507812 417.152344 332.328125 413.492188 334.574219 413.492188 Z M 334.574219 413.492188 "/>
<path style=" stroke:none;fill-rule:evenodd;fill:rgb(100%,79.607843%,23.137255%);fill-opacity:1;" d="M 334.574219 199.1875 L 343.617188 199.1875 C 345.863281 199.1875 347.683594 202.847656 347.683594 207.359375 L 347.683594 255.03125 C 347.683594 259.542969 345.863281 263.203125 343.617188 263.203125 L 334.574219 263.203125 C 332.328125 263.203125 330.507812 259.542969 330.507812 255.03125 L 330.507812 207.359375 C 330.507812 202.847656 332.328125 199.1875 334.574219 199.1875 Z M 334.574219 199.1875 "/>
<path style=" stroke:none;fill-rule:evenodd;fill:rgb(21.176471%,43.529412%,61.960784%);fill-opacity:1;" d="M 334.574219 15.132812 L 343.617188 15.132812 C 345.863281 15.132812 347.683594 18.792969 347.683594 23.304688 L 347.683594 174.335938 C 347.683594 178.851562 345.863281 182.511719 343.617188 182.511719 L 334.574219 182.511719 C 332.328125 182.511719 330.507812 178.851562 330.507812 174.335938 L 330.507812 23.304688 C 330.507812 18.792969 332.328125 15.132812 334.574219 15.132812 Z M 334.574219 15.132812 "/>
<path style=" stroke:none;fill-rule:evenodd;fill:rgb(21.176471%,43.529412%,61.960784%);fill-opacity:1;" d="M 360.367188 27.746094 L 369.410156 27.746094 C 371.65625 27.746094 373.476562 31.40625 373.476562 35.917969 L 373.476562 227.292969 C 373.476562 231.808594 371.65625 235.46875 369.410156 235.46875 L 360.367188 235.46875 C 358.121094 235.46875 356.300781 231.808594 356.300781 227.292969 L 356.300781 35.917969 C 356.300781 31.40625 358.121094 27.746094 360.367188 27.746094 Z M 360.367188 27.746094 "/>
<path style=" stroke:none;fill-rule:evenodd;fill:rgb(100%,79.607843%,23.137255%);fill-opacity:1;" d="M 360.367188 453.835938 L 369.410156 453.835938 C 371.65625 453.835938 373.476562 457.496094 373.476562 462.011719 L 373.476562 492.023438 C 373.476562 496.539062 371.65625 500.199219 369.410156 500.199219 L 360.367188 500.199219 C 358.121094 500.199219 356.300781 496.539062 356.300781 492.023438 L 356.300781 462.011719 C 356.300781 457.496094 358.121094 453.835938 360.367188 453.835938 Z M 360.367188 453.835938 "/>
<path style=" stroke:none;fill-rule:evenodd;fill:rgb(100%,79.607843%,23.137255%);fill-opacity:1;" d="M 385.457031 42.875 L 394.5 42.875 C 396.746094 42.875 398.566406 46.535156 398.566406 51.046875 L 398.566406 98.71875 C 398.566406 103.230469 396.746094 106.890625 394.5 106.890625 L 385.457031 106.890625 C 383.210938 106.890625 381.390625 103.230469 381.390625 98.71875 L 381.390625 51.046875 C 381.390625 46.535156 383.210938 42.875 385.457031 42.875 Z M 385.457031 42.875 "/>
<path style=" stroke:none;fill-rule:evenodd;fill:rgb(100%,79.607843%,23.137255%);fill-opacity:1;" d="M 385.457031 123.542969 L 394.5 123.542969 C 396.746094 123.542969 398.566406 127.203125 398.566406 131.71875 L 398.566406 222.238281 C 398.566406 226.753906 396.746094 230.414062 394.5 230.414062 L 385.457031 230.414062 C 383.210938 230.414062 381.390625 226.753906 381.390625 222.238281 L 381.390625 131.71875 C 381.390625 127.203125 383.210938 123.542969 385.457031 123.542969 Z M 385.457031 123.542969 "/>
<path style=" stroke:none;fill-rule:evenodd;fill:rgb(100%,79.607843%,23.137255%);fill-opacity:1;" d="M 411.226562 55.460938 L 420.269531 55.460938 C 422.515625 55.460938 424.335938 59.121094 424.335938 63.636719 L 424.335938 93.648438 C 424.335938 98.164062 422.515625 101.824219 420.269531 101.824219 L 411.226562 101.824219 C 408.980469 101.824219 407.160156 98.164062 407.160156 93.648438 L 407.160156 63.636719 C 407.160156 59.121094 408.980469 55.460938 411.226562 55.460938 Z M 411.226562 55.460938 "/>
<path style=" stroke:none;fill-rule:evenodd;fill:rgb(100%,79.607843%,23.137255%);fill-opacity:1;" d="M 411.226562 115.976562 L 420.269531 115.976562 C 422.515625 115.976562 424.335938 119.636719 424.335938 124.152344 L 424.335938 151.640625 C 424.335938 156.15625 422.515625 159.816406 420.269531 159.816406 L 411.226562 159.816406 C 408.980469 159.816406 407.160156 156.15625 407.160156 151.640625 L 407.160156 124.152344 C 407.160156 119.636719 408.980469 115.976562 411.226562 115.976562 Z M 411.226562 115.976562 "/>
<path style=" stroke:none;fill-rule:evenodd;fill:rgb(100%,79.607843%,23.137255%);fill-opacity:1;" d="M 411.226562 173.960938 L 420.269531 173.960938 C 422.515625 173.960938 424.335938 177.621094 424.335938 182.136719 L 424.335938 227.273438 C 424.335938 231.785156 422.515625 235.445312 420.269531 235.445312 L 411.226562 235.445312 C 408.980469 235.445312 407.160156 231.785156 407.160156 227.273438 L 407.160156 182.136719 C 407.160156 177.621094 408.980469 173.960938 411.226562 173.960938 Z M 411.226562 173.960938 "/>
<path style=" stroke:none;fill-rule:evenodd;fill:rgb(100%,79.607843%,23.137255%);fill-opacity:1;" d="M 436.671875 70.601562 L 445.714844 70.601562 C 447.960938 70.601562 449.78125 74.261719 449.78125 78.773438 L 449.78125 234.847656 C 449.78125 239.359375 447.960938 243.019531 445.714844 243.019531 L 436.671875 243.019531 C 434.425781 243.019531 432.605469 239.359375 432.605469 234.847656 L 432.605469 78.773438 C 432.605469 74.261719 434.425781 70.601562 436.671875 70.601562 Z M 436.671875 70.601562 "/>
<path style=" stroke:none;fill-rule:evenodd;fill:rgb(100%,79.607843%,23.137255%);fill-opacity:1;" d="M 461.960938 115.972656 L 471.003906 115.972656 C 473.25 115.972656 475.070312 119.632812 475.070312 124.148438 L 475.070312 229.792969 C 475.070312 234.308594 473.25 237.96875 471.003906 237.96875 L 461.960938 237.96875 C 459.714844 237.96875 457.894531 234.308594 457.894531 229.792969 L 457.894531 124.148438 C 457.894531 119.632812 459.714844 115.972656 461.960938 115.972656 Z M 461.960938 115.972656 "/>
<path style=" stroke:none;fill-rule:evenodd;fill:rgb(100%,79.607843%,23.137255%);fill-opacity:1;" d="M 487.046875 173.96875 L 496.089844 173.96875 C 498.335938 173.96875 500.15625 177.625 500.15625 182.140625 L 500.15625 212.152344 C 500.15625 216.667969 498.335938 220.328125 496.089844 220.328125 L 487.046875 220.328125 C 484.800781 220.328125 482.980469 216.667969 482.980469 212.152344 L 482.980469 182.140625 C 482.980469 177.625 484.800781 173.96875 487.046875 173.96875 Z M 487.046875 173.96875 "/>
</g>
</svg>
